0
SECTION
2
HEADER
9
$ACADVER
1
AC1009
0
ENDSEC
0
SECTION
2
ENTITIES
0
TEXT
8
ROTULOS
10
35
20
88
40
4
1
ESTACIONAMIENTO MINA COLLAHUASI - CONCEPTUAL
0
TEXT
8
ROTULOS
10
3
20
61
40
3
1
INGRESO - RX02
0
TEXT
8
ROTULOS
10
98
20
61
40
3
1
SALIDA - RX03
0
TEXT
8
ROTULOS
10
50
20
52
40
3
1
RX01 CONTROL ESTACIONAMIENTO
0
LINE
8
CERCO_ESTACIONAMIENTO
10
25
20
25
11
95
21
25
0
LINE
8
CERCO_ESTACIONAMIENTO
10
95
20
25
11
95
21
80
0
LINE
8
CERCO_ESTACIONAMIENTO
10
95
20
80
11
25
21
80
0
LINE
8
CERCO_ESTACIONAMIENTO
10
25
20
80
11
25
21
58
0
LINE
8
CERCO_ESTACIONAMIENTO
10
25
20
43
11
25
21
25
0
LINE
8
CAMINO_INGRESO
10
0
20
43
11
25
21
43
0
LINE
8
CAMINO_INGRESO
10
0
20
58
11
25
21
58
0
LINE
8
CAMINO_SALIDA
10
95
20
43
11
120
21
35
0
LINE
8
CAMINO_SALIDA
10
95
20
58
11
120
21
50
0
LINE
8
CALLE_CIRCULACION
10
25
20
43
11
95
21
43
0
LINE
8
CALLE_CIRCULACION
10
25
20
58
11
95
21
58
0
LINE
8
PLAZAS_ESTACIONAMIENTO
10
28
20
59
11
28
21
78
0
LINE
8
PLAZAS_ESTACIONAMIENTO
10
47
20
59
11
47
21
78
0
LINE
8
PLAZAS_ESTACIONAMIENTO
10
28
20
78
11
47
21
78
0
LINE
8
PLAZAS_ESTACIONAMIENTO
10
50
20
59
11
50
21
78
0
LINE
8
PLAZAS_ESTACIONAMIENTO
10
69
20
59
11
69
21
78
0
LINE
8
PLAZAS_ESTACIONAMIENTO
10
50
20
78
11
69
21
78
0
LINE
8
PLAZAS_ESTACIONAMIENTO
10
72
20
59
11
72
21
78
0
LINE
8
PLAZAS_ESTACIONAMIENTO
10
91
20
59
11
91
21
78
0
LINE
8
PLAZAS_ESTACIONAMIENTO
10
72
20
78
11
91
21
78
0
LINE
8
PLAZAS_ESTACIONAMIENTO
10
28
20
27
11
28
21
42
0
LINE
8
PLAZAS_ESTACIONAMIENTO
10
47
20
27
11
47
21
42
0
LINE
8
PLAZAS_ESTACIONAMIENTO
10
28
20
27
11
47
21
27
0
LINE
8
PLAZAS_ESTACIONAMIENTO
10
50
20
27
11
50
21
42
0
LINE
8
PLAZAS_ESTACIONAMIENTO
10
69
20
27
11
69
21
42
0
LINE
8
PLAZAS_ESTACIONAMIENTO
10
50
20
27
11
69
21
27
0
LINE
8
PLAZAS_ESTACIONAMIENTO
10
72
20
27
11
72
21
42
0
LINE
8
PLAZAS_ESTACIONAMIENTO
10
91
20
27
11
91
21
42
0
LINE
8
PLAZAS_ESTACIONAMIENTO
10
72
20
27
11
91
21
27
0
LINE
8
FLECHA_INGRESO
10
5
20
50
11
19
21
50
0
LINE
8
FLECHA_INGRESO
10
19
20
50
11
15
21
53
0
LINE
8
FLECHA_INGRESO
10
19
20
50
11
15
21
47
0
LINE
8
FLECHA_SALIDA
10
101
20
50
11
115
21
45
0
LINE
8
FLECHA_SALIDA
10
115
20
45
11
110
21
44
0
LINE
8
FLECHA_SALIDA
10
115
20
45
11
112
21
49
0
POINT
8
READERS
10
60
20
52
0
POINT
8
READERS
10
12
20
50
0
POINT
8
READERS
10
108
20
50
0
ENDSEC
0
EOF
