0
SECTION
2
HEADER
9
$ACADVER
1
AC1009
0
ENDSEC
0
SECTION
2
TABLES
0
TABLE
2
LAYER
70
9
0
LAYER
2
MUROS_OFICINA
70
0
62
7
6
CONTINUOUS
0
LAYER
2
CONTROL_ACCESO
70
0
62
2
6
CONTINUOUS
0
LAYER
2
RUTA_PEATONAL
70
0
62
3
6
CONTINUOUS
0
LAYER
2
PUNTO_FORMACION
70
0
62
4
6
CONTINUOUS
0
LAYER
2
RUTA_SALIDA
70
0
62
1
6
CONTINUOUS
0
LAYER
2
NODOS_RX
70
0
62
6
6
CONTINUOUS
0
LAYER
2
TEXTOS
70
0
62
7
6
CONTINUOUS
0
LAYER
2
LOCKERS
70
0
62
5
6
CONTINUOUS
0
LAYER
2
EQUIPAMIENTO
70
0
62
8
6
CONTINUOUS
0
ENDTAB
0
ENDSEC
0
SECTION
2
ENTITIES
0
LINE
8
MUROS_OFICINA
10
20
20
15
30
0
11
100
21
15
31
0
0
LINE
8
MUROS_OFICINA
10
100
20
15
30
0
11
100
21
72
31
0
0
LINE
8
MUROS_OFICINA
10
100
20
72
30
0
11
20
21
72
31
0
0
LINE
8
MUROS_OFICINA
10
20
20
72
30
0
11
20
21
55
31
0
0
LINE
8
MUROS_OFICINA
10
20
20
45
30
0
11
20
21
15
31
0
0
LINE
8
RUTA_PEATONAL
10
0
20
42
30
0
11
20
21
42
31
0
0
LINE
8
RUTA_PEATONAL
10
0
20
58
30
0
11
20
21
58
31
0
0
LINE
8
EQUIPAMIENTO
10
5
20
42
30
0
11
5
21
58
31
0
0
LINE
8
EQUIPAMIENTO
10
5
20
58
30
0
11
15
21
58
31
0
0
LINE
8
EQUIPAMIENTO
10
15
20
58
30
0
11
15
21
42
31
0
0
LINE
8
CONTROL_ACCESO
10
20
20
45
30
0
11
35
21
45
31
0
0
LINE
8
CONTROL_ACCESO
10
35
20
45
30
0
11
35
21
58
31
0
0
LINE
8
CONTROL_ACCESO
10
35
20
58
30
0
11
20
21
58
31
0
0
LINE
8
CONTROL_ACCESO
10
27.5
20
45
30
0
11
27.5
21
58
31
0
0
LINE
8
MUROS_OFICINA
10
35
20
15
30
0
11
35
21
72
31
0
0
LINE
8
MUROS_OFICINA
10
55
20
15
30
0
11
55
21
72
31
0
0
LINE
8
MUROS_OFICINA
10
35
20
43
30
0
11
55
21
43
31
0
0
LINE
8
MUROS_OFICINA
10
55
20
30
30
0
11
78
21
30
31
0
0
LINE
8
MUROS_OFICINA
10
78
20
15
30
0
11
78
21
72
31
0
0
LINE
8
MUROS_OFICINA
10
78
20
48
30
0
11
100
21
48
31
0
0
LINE
8
LOCKERS
10
38
20
48
30
0
11
52
21
48
31
0
0
LINE
8
LOCKERS
10
38
20
53
30
0
11
52
21
53
31
0
0
LINE
8
LOCKERS
10
38
20
58
30
0
11
52
21
58
31
0
0
LINE
8
LOCKERS
10
38
20
63
30
0
11
52
21
63
31
0
0
LINE
8
PUNTO_FORMACION
10
59
20
36
30
0
11
74
21
36
31
0
0
LINE
8
PUNTO_FORMACION
10
74
20
36
30
0
11
74
21
52
31
0
0
LINE
8
PUNTO_FORMACION
10
74
20
52
30
0
11
59
21
52
31
0
0
LINE
8
PUNTO_FORMACION
10
59
20
52
30
0
11
59
21
36
31
0
0
LINE
8
EQUIPAMIENTO
10
62
20
40
30
0
11
71
21
40
31
0
0
LINE
8
EQUIPAMIENTO
10
62
20
44
30
0
11
71
21
44
31
0
0
LINE
8
EQUIPAMIENTO
10
62
20
48
30
0
11
71
21
48
31
0
0
LINE
8
EQUIPAMIENTO
10
82
20
53
30
0
11
96
21
53
31
0
0
LINE
8
EQUIPAMIENTO
10
96
20
53
30
0
11
96
21
68
31
0
0
LINE
8
EQUIPAMIENTO
10
96
20
68
30
0
11
82
21
68
31
0
0
LINE
8
EQUIPAMIENTO
10
82
20
68
30
0
11
82
21
53
31
0
0
LINE
8
EQUIPAMIENTO
10
82
20
20
30
0
11
96
21
20
31
0
0
LINE
8
EQUIPAMIENTO
10
96
20
20
30
0
11
96
21
43
31
0
0
LINE
8
EQUIPAMIENTO
10
96
20
43
30
0
11
82
21
43
31
0
0
LINE
8
EQUIPAMIENTO
10
82
20
43
30
0
11
82
21
20
31
0
0
LINE
8
RUTA_SALIDA
10
100
20
20
30
0
11
120
21
5
31
0
0
LINE
8
RUTA_SALIDA
10
100
20
32
30
0
11
120
21
17
31
0
0
LINE
8
RUTA_PEATONAL
10
8
20
50
30
0
11
27
21
50
31
0
0
LINE
8
RUTA_PEATONAL
10
27
20
50
30
0
11
45
21
51
31
0
0
LINE
8
RUTA_PEATONAL
10
45
20
51
30
0
11
66
21
44
31
0
0
LINE
8
RUTA_PEATONAL
10
66
20
44
30
0
11
88
21
32
31
0
0
LINE
8
RUTA_PEATONAL
10
88
20
32
30
0
11
110
21
15
31
0
0
CIRCLE
8
NODOS_RX
10
66
20
38
30
0
40
2.2
0
CIRCLE
8
NODOS_RX
10
27
20
50
30
0
40
2.2
0
CIRCLE
8
NODOS_RX
10
110
20
15
30
0
40
2.2
0
TEXT
8
TEXTOS
10
4
20
63
30
0
40
2.5
1
PARADA BUS
0
TEXT
8
TEXTOS
10
21
20
63
30
0
40
2.2
1
PORTERIA / ACCESO
0
TEXT
8
TEXTOS
10
38
20
67
30
0
40
2.5
1
VESTIDORES
0
TEXT
8
TEXTOS
10
59
20
56
30
0
40
2.2
1
PUNTO FORMACION
0
TEXT
8
TEXTOS
10
82
20
61
30
0
40
2.2
1
SUPERVISION
0
TEXT
8
TEXTOS
10
83
20
31
30
0
40
2.2
1
SALA CONTROL
0
TEXT
8
TEXTOS
10
102
20
24
30
0
40
2.4
1
SALIDA
0
TEXT
8
TEXTOS
10
63
20
34
30
0
40
1.8
1
RX01
0
TEXT
8
TEXTOS
10
24
20
47
30
0
40
1.8
1
RX02
0
TEXT
8
TEXTOS
10
107
20
12
30
0
40
1.8
1
RX03
0
ENDSEC
0
EOF

