0
SECTION
2
HEADER
9
$ACADVER
1
AC1009
0
ENDSEC
0
SECTION
2
TABLES
0
TABLE
2
LAYER
70
27
0
LAYER
2
SUPERFICIE
70
0
62
7
6
CONTINUOUS
0
LAYER
2
PLANOS_NIVEL
70
0
62
8
6
CONTINUOUS
0
LAYER
2
MACROBLOQUES
70
0
62
94
6
CONTINUOUS
0
LAYER
2
GALERIA_PRODUCCION
70
0
62
3
6
CONTINUOUS
0
LAYER
2
GALERIA_RETORNO
70
0
62
4
6
CONTINUOUS
0
LAYER
2
GALERIA_SERVICIO
70
0
62
3
6
CONTINUOUS
0
LAYER
2
GALERIA_PERIMETRAL
70
0
62
8
6
CONTINUOUS
0
LAYER
2
CAMARA_MANIOBRAS
70
0
62
2
6
CONTINUOUS
0
LAYER
2
CRUCERO
70
0
62
9
6
CONTINUOUS
0
LAYER
2
CALLE_HUNDIMIENTO
70
0
62
33
6
CONTINUOUS
0
LAYER
2
RAMPA_ACCESO
70
0
62
5
6
CONTINUOUS
0
LAYER
2
RAMPA_CARACOL
70
0
62
5
6
CONTINUOUS
0
LAYER
2
ENLACE_RAMPA
70
0
62
5
6
CONTINUOUS
0
LAYER
2
GALERIA_SECUNDARIA
70
0
62
8
6
CONTINUOUS
0
LAYER
2
PIQUE_PRINCIPAL
70
0
62
7
6
CONTINUOUS
0
LAYER
2
VENTILACION_INYECCION
70
0
62
4
6
CONTINUOUS
0
LAYER
2
VENTILACION_EXTRACCION
70
0
62
30
6
CONTINUOUS
0
LAYER
2
CHIMENEA_ESCAPE
70
0
62
7
6
CONTINUOUS
0
LAYER
2
REFUGIO
70
0
62
3
6
CONTINUOUS
0
LAYER
2
TALLER
70
0
62
5
6
CONTINUOUS
0
LAYER
2
SUBESTACION
70
0
62
2
6
CONTINUOUS
0
LAYER
2
CHANCADO
70
0
62
2
6
CONTINUOUS
0
LAYER
2
BOMBEO
70
0
62
4
6
CONTINUOUS
0
LAYER
2
TRASPASO_MINERAL
70
0
62
6
6
CONTINUOUS
0
LAYER
2
NODOS_RX
70
0
62
2
6
CONTINUOUS
0
LAYER
2
BEACONS_REF
70
0
62
1
6
CONTINUOUS
0
LAYER
2
TEXTOS_COTAS
70
0
62
7
6
CONTINUOUS
0
ENDTAB
0
ENDSEC
0
SECTION
2
ENTITIES
0
3DFACE
8
PLANOS_NIVEL
10
80
20
-125
30
-250
11
455
21
-125
31
-250
12
455
22
125
32
-250
13
80
23
125
33
-250
0
TEXT
8
TEXTOS_COTAS
10
80
20
-125
30
-250
40
12
1
NIVEL 1  COTA -250 m
0
3DFACE
8
PLANOS_NIVEL
10
285
20
-125
30
-450
11
735
21
-125
31
-450
12
735
22
125
32
-450
13
285
23
125
33
-450
0
TEXT
8
TEXTOS_COTAS
10
285
20
-125
30
-450
40
12
1
NIVEL 2  COTA -450 m
0
3DFACE
8
PLANOS_NIVEL
10
505
20
-125
30
-650
11
965
21
-125
31
-650
12
965
22
125
32
-650
13
505
23
125
33
-650
0
TEXT
8
TEXTOS_COTAS
10
505
20
-125
30
-650
40
12
1
NIVEL 3  COTA -650 m
0
3DFACE
8
MACROBLOQUES
10
136.0
20
-52.5
30
-75.0
11
224.0
21
-52.5
31
-75.0
12
224.0
22
52.5
32
-75.0
13
136.0
23
52.5
33
-75.0
0
3DFACE
8
MACROBLOQUES
10
136.0
20
-52.5
30
-232.0
11
224.0
21
-52.5
31
-232.0
12
224.0
22
52.5
32
-232.0
13
136.0
23
52.5
33
-232.0
0
3DFACE
8
MACROBLOQUES
10
136.0
20
-52.5
30
-75.0
11
224.0
21
-52.5
31
-75.0
12
224.0
22
-52.5
32
-232.0
13
136.0
23
-52.5
33
-232.0
0
3DFACE
8
MACROBLOQUES
10
224.0
20
-52.5
30
-75.0
11
224.0
21
52.5
31
-75.0
12
224.0
22
52.5
32
-232.0
13
224.0
23
-52.5
33
-232.0
0
3DFACE
8
MACROBLOQUES
10
224.0
20
52.5
30
-75.0
11
136.0
21
52.5
31
-75.0
12
136.0
22
52.5
32
-232.0
13
224.0
23
52.5
33
-232.0
0
3DFACE
8
MACROBLOQUES
10
136.0
20
52.5
30
-75.0
11
136.0
21
-52.5
31
-75.0
12
136.0
22
-52.5
32
-232.0
13
136.0
23
52.5
33
-232.0
0
TEXT
8
TEXTOS_COTAS
10
180
20
0
30
-69
40
8
1
MB-01 N1
0
3DFACE
8
MACROBLOQUES
10
256.0
20
-47.5
30
-85.0
11
344.0
21
-47.5
31
-85.0
12
344.0
22
57.5
32
-85.0
13
256.0
23
57.5
33
-85.0
0
3DFACE
8
MACROBLOQUES
10
256.0
20
-47.5
30
-232.0
11
344.0
21
-47.5
31
-232.0
12
344.0
22
57.5
32
-232.0
13
256.0
23
57.5
33
-232.0
0
3DFACE
8
MACROBLOQUES
10
256.0
20
-47.5
30
-85.0
11
344.0
21
-47.5
31
-85.0
12
344.0
22
-47.5
32
-232.0
13
256.0
23
-47.5
33
-232.0
0
3DFACE
8
MACROBLOQUES
10
344.0
20
-47.5
30
-85.0
11
344.0
21
57.5
31
-85.0
12
344.0
22
57.5
32
-232.0
13
344.0
23
-47.5
33
-232.0
0
3DFACE
8
MACROBLOQUES
10
344.0
20
57.5
30
-85.0
11
256.0
21
57.5
31
-85.0
12
256.0
22
57.5
32
-232.0
13
344.0
23
57.5
33
-232.0
0
3DFACE
8
MACROBLOQUES
10
256.0
20
57.5
30
-85.0
11
256.0
21
-47.5
31
-85.0
12
256.0
22
-47.5
32
-232.0
13
256.0
23
57.5
33
-232.0
0
TEXT
8
TEXTOS_COTAS
10
300
20
5
30
-79
40
8
1
MB-02 N1
0
3DFACE
8
MACROBLOQUES
10
381.0
20
-47.5
30
-100.0
11
459.0
21
-47.5
31
-100.0
12
459.0
22
47.5
32
-100.0
13
381.0
23
47.5
33
-100.0
0
3DFACE
8
MACROBLOQUES
10
381.0
20
-47.5
30
-232.0
11
459.0
21
-47.5
31
-232.0
12
459.0
22
47.5
32
-232.0
13
381.0
23
47.5
33
-232.0
0
3DFACE
8
MACROBLOQUES
10
381.0
20
-47.5
30
-100.0
11
459.0
21
-47.5
31
-100.0
12
459.0
22
-47.5
32
-232.0
13
381.0
23
-47.5
33
-232.0
0
3DFACE
8
MACROBLOQUES
10
459.0
20
-47.5
30
-100.0
11
459.0
21
47.5
31
-100.0
12
459.0
22
47.5
32
-232.0
13
459.0
23
-47.5
33
-232.0
0
3DFACE
8
MACROBLOQUES
10
459.0
20
47.5
30
-100.0
11
381.0
21
47.5
31
-100.0
12
381.0
22
47.5
32
-232.0
13
459.0
23
47.5
33
-232.0
0
3DFACE
8
MACROBLOQUES
10
381.0
20
47.5
30
-100.0
11
381.0
21
-47.5
31
-100.0
12
381.0
22
-47.5
32
-232.0
13
381.0
23
47.5
33
-232.0
0
TEXT
8
TEXTOS_COTAS
10
420
20
0
30
-94
40
8
1
MB-03 N1
0
3DFACE
8
MACROBLOQUES
10
360.0
20
-55.0
30
-280.0
11
450.0
21
-55.0
31
-280.0
12
450.0
22
55.0
32
-280.0
13
360.0
23
55.0
33
-280.0
0
3DFACE
8
MACROBLOQUES
10
360.0
20
-55.0
30
-432.0
11
450.0
21
-55.0
31
-432.0
12
450.0
22
55.0
32
-432.0
13
360.0
23
55.0
33
-432.0
0
3DFACE
8
MACROBLOQUES
10
360.0
20
-55.0
30
-280.0
11
450.0
21
-55.0
31
-280.0
12
450.0
22
-55.0
32
-432.0
13
360.0
23
-55.0
33
-432.0
0
3DFACE
8
MACROBLOQUES
10
450.0
20
-55.0
30
-280.0
11
450.0
21
55.0
31
-280.0
12
450.0
22
55.0
32
-432.0
13
450.0
23
-55.0
33
-432.0
0
3DFACE
8
MACROBLOQUES
10
450.0
20
55.0
30
-280.0
11
360.0
21
55.0
31
-280.0
12
360.0
22
55.0
32
-432.0
13
450.0
23
55.0
33
-432.0
0
3DFACE
8
MACROBLOQUES
10
360.0
20
55.0
30
-280.0
11
360.0
21
-55.0
31
-280.0
12
360.0
22
-55.0
32
-432.0
13
360.0
23
55.0
33
-432.0
0
TEXT
8
TEXTOS_COTAS
10
405
20
0
30
-274
40
8
1
MB-04 N2
0
3DFACE
8
MACROBLOQUES
10
495.0
20
-50.0
30
-290.0
11
585.0
21
-50.0
31
-290.0
12
585.0
22
60.0
32
-290.0
13
495.0
23
60.0
33
-290.0
0
3DFACE
8
MACROBLOQUES
10
495.0
20
-50.0
30
-432.0
11
585.0
21
-50.0
31
-432.0
12
585.0
22
60.0
32
-432.0
13
495.0
23
60.0
33
-432.0
0
3DFACE
8
MACROBLOQUES
10
495.0
20
-50.0
30
-290.0
11
585.0
21
-50.0
31
-290.0
12
585.0
22
-50.0
32
-432.0
13
495.0
23
-50.0
33
-432.0
0
3DFACE
8
MACROBLOQUES
10
585.0
20
-50.0
30
-290.0
11
585.0
21
60.0
31
-290.0
12
585.0
22
60.0
32
-432.0
13
585.0
23
-50.0
33
-432.0
0
3DFACE
8
MACROBLOQUES
10
585.0
20
60.0
30
-290.0
11
495.0
21
60.0
31
-290.0
12
495.0
22
60.0
32
-432.0
13
585.0
23
60.0
33
-432.0
0
3DFACE
8
MACROBLOQUES
10
495.0
20
60.0
30
-290.0
11
495.0
21
-50.0
31
-290.0
12
495.0
22
-50.0
32
-432.0
13
495.0
23
60.0
33
-432.0
0
TEXT
8
TEXTOS_COTAS
10
540
20
5
30
-284
40
8
1
MB-05 N2
0
3DFACE
8
MACROBLOQUES
10
634.0
20
-50.0
30
-305.0
11
716.0
21
-50.0
31
-305.0
12
716.0
22
50.0
32
-305.0
13
634.0
23
50.0
33
-305.0
0
3DFACE
8
MACROBLOQUES
10
634.0
20
-50.0
30
-432.0
11
716.0
21
-50.0
31
-432.0
12
716.0
22
50.0
32
-432.0
13
634.0
23
50.0
33
-432.0
0
3DFACE
8
MACROBLOQUES
10
634.0
20
-50.0
30
-305.0
11
716.0
21
-50.0
31
-305.0
12
716.0
22
-50.0
32
-432.0
13
634.0
23
-50.0
33
-432.0
0
3DFACE
8
MACROBLOQUES
10
716.0
20
-50.0
30
-305.0
11
716.0
21
50.0
31
-305.0
12
716.0
22
50.0
32
-432.0
13
716.0
23
-50.0
33
-432.0
0
3DFACE
8
MACROBLOQUES
10
716.0
20
50.0
30
-305.0
11
634.0
21
50.0
31
-305.0
12
634.0
22
50.0
32
-432.0
13
716.0
23
50.0
33
-432.0
0
3DFACE
8
MACROBLOQUES
10
634.0
20
50.0
30
-305.0
11
634.0
21
-50.0
31
-305.0
12
634.0
22
-50.0
32
-432.0
13
634.0
23
50.0
33
-432.0
0
TEXT
8
TEXTOS_COTAS
10
675
20
0
30
-299
40
8
1
MB-06 N2
0
3DFACE
8
MACROBLOQUES
10
579.0
20
-55.0
30
-480.0
11
671.0
21
-55.0
31
-480.0
12
671.0
22
55.0
32
-480.0
13
579.0
23
55.0
33
-480.0
0
3DFACE
8
MACROBLOQUES
10
579.0
20
-55.0
30
-632.0
11
671.0
21
-55.0
31
-632.0
12
671.0
22
55.0
32
-632.0
13
579.0
23
55.0
33
-632.0
0
3DFACE
8
MACROBLOQUES
10
579.0
20
-55.0
30
-480.0
11
671.0
21
-55.0
31
-480.0
12
671.0
22
-55.0
32
-632.0
13
579.0
23
-55.0
33
-632.0
0
3DFACE
8
MACROBLOQUES
10
671.0
20
-55.0
30
-480.0
11
671.0
21
55.0
31
-480.0
12
671.0
22
55.0
32
-632.0
13
671.0
23
-55.0
33
-632.0
0
3DFACE
8
MACROBLOQUES
10
671.0
20
55.0
30
-480.0
11
579.0
21
55.0
31
-480.0
12
579.0
22
55.0
32
-632.0
13
671.0
23
55.0
33
-632.0
0
3DFACE
8
MACROBLOQUES
10
579.0
20
55.0
30
-480.0
11
579.0
21
-55.0
31
-480.0
12
579.0
22
-55.0
32
-632.0
13
579.0
23
55.0
33
-632.0
0
TEXT
8
TEXTOS_COTAS
10
625
20
0
30
-474
40
8
1
MB-07 N3
0
3DFACE
8
MACROBLOQUES
10
719.0
20
-50.0
30
-490.0
11
811.0
21
-50.0
31
-490.0
12
811.0
22
60.0
32
-490.0
13
719.0
23
60.0
33
-490.0
0
3DFACE
8
MACROBLOQUES
10
719.0
20
-50.0
30
-632.0
11
811.0
21
-50.0
31
-632.0
12
811.0
22
60.0
32
-632.0
13
719.0
23
60.0
33
-632.0
0
3DFACE
8
MACROBLOQUES
10
719.0
20
-50.0
30
-490.0
11
811.0
21
-50.0
31
-490.0
12
811.0
22
-50.0
32
-632.0
13
719.0
23
-50.0
33
-632.0
0
3DFACE
8
MACROBLOQUES
10
811.0
20
-50.0
30
-490.0
11
811.0
21
60.0
31
-490.0
12
811.0
22
60.0
32
-632.0
13
811.0
23
-50.0
33
-632.0
0
3DFACE
8
MACROBLOQUES
10
811.0
20
60.0
30
-490.0
11
719.0
21
60.0
31
-490.0
12
719.0
22
60.0
32
-632.0
13
811.0
23
60.0
33
-632.0
0
3DFACE
8
MACROBLOQUES
10
719.0
20
60.0
30
-490.0
11
719.0
21
-50.0
31
-490.0
12
719.0
22
-50.0
32
-632.0
13
719.0
23
60.0
33
-632.0
0
TEXT
8
TEXTOS_COTAS
10
765
20
5
30
-484
40
8
1
MB-08 N3
0
3DFACE
8
MACROBLOQUES
10
855.0
20
-50.0
30
-505.0
11
935.0
21
-50.0
31
-505.0
12
935.0
22
50.0
32
-505.0
13
855.0
23
50.0
33
-505.0
0
3DFACE
8
MACROBLOQUES
10
855.0
20
-50.0
30
-632.0
11
935.0
21
-50.0
31
-632.0
12
935.0
22
50.0
32
-632.0
13
855.0
23
50.0
33
-632.0
0
3DFACE
8
MACROBLOQUES
10
855.0
20
-50.0
30
-505.0
11
935.0
21
-50.0
31
-505.0
12
935.0
22
-50.0
32
-632.0
13
855.0
23
-50.0
33
-632.0
0
3DFACE
8
MACROBLOQUES
10
935.0
20
-50.0
30
-505.0
11
935.0
21
50.0
31
-505.0
12
935.0
22
50.0
32
-632.0
13
935.0
23
-50.0
33
-632.0
0
3DFACE
8
MACROBLOQUES
10
935.0
20
50.0
30
-505.0
11
855.0
21
50.0
31
-505.0
12
855.0
22
50.0
32
-632.0
13
935.0
23
50.0
33
-632.0
0
3DFACE
8
MACROBLOQUES
10
855.0
20
50.0
30
-505.0
11
855.0
21
-50.0
31
-505.0
12
855.0
22
-50.0
32
-632.0
13
855.0
23
50.0
33
-632.0
0
TEXT
8
TEXTOS_COTAS
10
895
20
0
30
-499
40
8
1
MB-09 N3
0
LINE
8
SUPERFICIE
10
0
20
-220
30
0
11
1000
21
-220
31
0
0
LINE
8
SUPERFICIE
10
1000
20
-220
30
0
11
1000
21
220
31
0
0
LINE
8
SUPERFICIE
10
1000
20
220
30
0
11
0
21
220
31
0
0
LINE
8
SUPERFICIE
10
0
20
220
30
0
11
0
21
-220
31
0
0
LINE
8
ENLACE_RAMPA
10
45
20
-180
30
0
11
240
21
-150
31
-15
0
LINE
8
ENLACE_RAMPA
10
240
20
-150
30
-15
11
358.5
21
-111.1
31
-40
0
LINE
8
GALERIA_PRODUCCION
10
90
20
-70
30
-250
11
445
21
-70
31
-250
0
LINE
8
GALERIA_RETORNO
10
105
20
70
30
-250
11
430
21
70
31
-250
0
LINE
8
CRUCERO
10
145
20
-105
30
-250
11
145
21
105
31
-250
0
LINE
8
CRUCERO
10
230
20
-105
30
-250
11
230
21
105
31
-250
0
LINE
8
CRUCERO
10
315
20
-105
30
-250
11
315
21
105
31
-250
0
LINE
8
CRUCERO
10
400
20
-105
30
-250
11
400
21
105
31
-250
0
LINE
8
CALLE_HUNDIMIENTO
10
120
20
-10
30
-250
11
430
21
-10
31
-250
0
LINE
8
GALERIA_SERVICIO
10
95
20
25
30
-250
11
445
21
25
31
-250
0
LINE
8
GALERIA_PERIMETRAL
10
95
20
-110
30
-250
11
445
21
-110
31
-250
0
LINE
8
GALERIA_PERIMETRAL
10
95
20
110
30
-250
11
445
21
110
31
-250
0
LINE
8
GALERIA_PERIMETRAL
10
95
20
-110
30
-250
11
95
21
110
31
-250
0
LINE
8
GALERIA_PERIMETRAL
10
445
20
-110
30
-250
11
445
21
110
31
-250
0
LINE
8
CAMARA_MANIOBRAS
10
245
20
82
30
-250
11
305
21
82
31
-250
0
LINE
8
CAMARA_MANIOBRAS
10
305
20
82
30
-250
11
305
21
118
31
-250
0
LINE
8
CAMARA_MANIOBRAS
10
305
20
118
30
-250
11
245
21
118
31
-250
0
LINE
8
CAMARA_MANIOBRAS
10
245
20
118
30
-250
11
245
21
82
31
-250
0
LINE
8
GALERIA_SECUNDARIA
10
100
20
-42
30
-250
11
438
21
-42
31
-250
0
LINE
8
GALERIA_SECUNDARIA
10
155
20
-105
30
-250
11
185
21
-42
31
-250
0
LINE
8
GALERIA_SECUNDARIA
10
245
20
-105
30
-250
11
270
21
-42
31
-250
0
LINE
8
GALERIA_SECUNDARIA
10
335
20
-105
30
-250
11
355
21
-42
31
-250
0
LINE
8
GALERIA_SECUNDARIA
10
170
20
42
30
-250
11
215
21
70
31
-250
0
LINE
8
GALERIA_SECUNDARIA
10
330
20
42
30
-250
11
375
21
70
31
-250
0
LINE
8
ENLACE_RAMPA
10
381.8
20
128.4
30
-250
11
400
21
105
31
-250
0
LINE
8
GALERIA_PRODUCCION
10
295
20
-65
30
-450
11
725
21
-65
31
-450
0
LINE
8
GALERIA_RETORNO
10
315
20
75
30
-450
11
705
21
75
31
-450
0
LINE
8
CRUCERO
10
355
20
-105
30
-450
11
355
21
105
31
-450
0
LINE
8
CRUCERO
10
455
20
-105
30
-450
11
455
21
105
31
-450
0
LINE
8
CRUCERO
10
555
20
-105
30
-450
11
555
21
105
31
-450
0
LINE
8
CRUCERO
10
655
20
-105
30
-450
11
655
21
105
31
-450
0
LINE
8
CALLE_HUNDIMIENTO
10
320
20
5
30
-450
11
710
21
5
31
-450
0
LINE
8
GALERIA_SERVICIO
10
300
20
30
30
-450
11
720
21
30
31
-450
0
LINE
8
GALERIA_PERIMETRAL
10
300
20
-110
30
-450
11
720
21
-110
31
-450
0
LINE
8
GALERIA_PERIMETRAL
10
300
20
110
30
-450
11
720
21
110
31
-450
0
LINE
8
GALERIA_PERIMETRAL
10
300
20
-110
30
-450
11
300
21
110
31
-450
0
LINE
8
GALERIA_PERIMETRAL
10
720
20
-110
30
-450
11
720
21
110
31
-450
0
LINE
8
CAMARA_MANIOBRAS
10
470
20
82
30
-450
11
545
21
82
31
-450
0
LINE
8
CAMARA_MANIOBRAS
10
545
20
82
30
-450
11
545
21
118
31
-450
0
LINE
8
CAMARA_MANIOBRAS
10
545
20
118
30
-450
11
470
21
118
31
-450
0
LINE
8
CAMARA_MANIOBRAS
10
470
20
118
30
-450
11
470
21
82
31
-450
0
LINE
8
GALERIA_SECUNDARIA
10
310
20
-36
30
-450
11
714
21
-36
31
-450
0
LINE
8
GALERIA_SECUNDARIA
10
365
20
-105
30
-450
11
395
21
-36
31
-450
0
LINE
8
GALERIA_SECUNDARIA
10
465
20
-105
30
-450
11
490
21
-36
31
-450
0
LINE
8
GALERIA_SECUNDARIA
10
565
20
-105
30
-450
11
585
21
-36
31
-450
0
LINE
8
GALERIA_SECUNDARIA
10
665
20
-105
30
-450
11
680
21
-36
31
-450
0
LINE
8
GALERIA_SECUNDARIA
10
405
20
42
30
-450
11
450
21
75
31
-450
0
LINE
8
GALERIA_SECUNDARIA
10
560
20
42
30
-450
11
610
21
75
31
-450
0
LINE
8
ENLACE_RAMPA
10
652.9
20
112.5
30
-450
11
655
21
105
31
-450
0
LINE
8
GALERIA_PRODUCCION
10
515
20
-70
30
-650
11
955
21
-70
31
-650
0
LINE
8
GALERIA_RETORNO
10
535
20
70
30
-650
11
935
21
70
31
-650
0
LINE
8
CRUCERO
10
585
20
-105
30
-650
11
585
21
105
31
-650
0
LINE
8
CRUCERO
10
690
20
-105
30
-650
11
690
21
105
31
-650
0
LINE
8
CRUCERO
10
795
20
-105
30
-650
11
795
21
105
31
-650
0
LINE
8
CRUCERO
10
900
20
-105
30
-650
11
900
21
105
31
-650
0
LINE
8
CALLE_HUNDIMIENTO
10
540
20
0
30
-650
11
940
21
0
31
-650
0
LINE
8
GALERIA_SERVICIO
10
520
20
28
30
-650
11
950
21
28
31
-650
0
LINE
8
GALERIA_PERIMETRAL
10
520
20
-110
30
-650
11
950
21
-110
31
-650
0
LINE
8
GALERIA_PERIMETRAL
10
520
20
110
30
-650
11
950
21
110
31
-650
0
LINE
8
GALERIA_PERIMETRAL
10
520
20
-110
30
-650
11
520
21
110
31
-650
0
LINE
8
GALERIA_PERIMETRAL
10
950
20
-110
30
-650
11
950
21
110
31
-650
0
LINE
8
CAMARA_MANIOBRAS
10
710
20
82
30
-650
11
790
21
82
31
-650
0
LINE
8
CAMARA_MANIOBRAS
10
790
20
82
30
-650
11
790
21
118
31
-650
0
LINE
8
CAMARA_MANIOBRAS
10
790
20
118
30
-650
11
710
21
118
31
-650
0
LINE
8
CAMARA_MANIOBRAS
10
710
20
118
30
-650
11
710
21
82
31
-650
0
LINE
8
GALERIA_SECUNDARIA
10
530
20
-40
30
-650
11
944
21
-40
31
-650
0
LINE
8
GALERIA_SECUNDARIA
10
595
20
-105
30
-650
11
620
21
-40
31
-650
0
LINE
8
GALERIA_SECUNDARIA
10
700
20
-105
30
-650
11
720
21
-40
31
-650
0
LINE
8
GALERIA_SECUNDARIA
10
805
20
-105
30
-650
11
820
21
-40
31
-650
0
LINE
8
GALERIA_SECUNDARIA
10
910
20
-105
30
-650
11
920
21
-40
31
-650
0
LINE
8
GALERIA_SECUNDARIA
10
645
20
42
30
-650
11
690
21
70
31
-650
0
LINE
8
GALERIA_SECUNDARIA
10
805
20
42
30
-650
11
850
21
70
31
-650
0
LINE
8
ENLACE_RAMPA
10
616.1
20
-156.5
30
-650
11
620
21
-110
31
-650
0
LINE
8
RAMPA_ACCESO
10
45
20
-180
30
0
11
130
21
-155
31
-105
0
LINE
8
RAMPA_ACCESO
10
130
20
-155
30
-105
11
220
21
-105
31
-250
0
LINE
8
RAMPA_ACCESO
10
220
20
-105
30
-250
11
350
21
-65
31
-350
0
LINE
8
RAMPA_ACCESO
10
350
20
-65
30
-350
11
470
21
-15
31
-450
0
LINE
8
RAMPA_ACCESO
10
470
20
-15
30
-450
11
610
21
-20
31
-550
0
LINE
8
RAMPA_ACCESO
10
610
20
-20
30
-550
11
720
21
-60
31
-650
0
LINE
8
PIQUE_PRINCIPAL
10
500
20
160
30
0
11
500
21
160
31
-690
0
LINE
8
VENTILACION_INYECCION
10
875
20
165
30
-55
11
875
21
165
31
-690
0
LINE
8
VENTILACION_EXTRACCION
10
915
20
145
30
-55
11
915
21
145
31
-690
0
LINE
8
CHIMENEA_ESCAPE
10
960
20
-160
30
-35
11
930
21
-130
31
-650
0
LINE
8
REFUGIO
10
115
20
80
30
-250
11
190
21
80
31
-250
0
LINE
8
REFUGIO
10
190
20
80
30
-250
11
190
21
120
31
-250
0
LINE
8
REFUGIO
10
190
20
120
30
-250
11
115
21
120
31
-250
0
LINE
8
REFUGIO
10
115
20
120
30
-250
11
115
21
80
31
-250
0
LINE
8
TALLER
10
345
20
80
30
-250
11
425
21
80
31
-250
0
LINE
8
TALLER
10
425
20
80
30
-250
11
425
21
120
31
-250
0
LINE
8
TALLER
10
425
20
120
30
-250
11
345
21
120
31
-250
0
LINE
8
TALLER
10
345
20
120
30
-250
11
345
21
80
31
-250
0
LINE
8
SUBESTACION
10
320
20
80
30
-450
11
395
21
80
31
-450
0
LINE
8
SUBESTACION
10
395
20
80
30
-450
11
395
21
120
31
-450
0
LINE
8
SUBESTACION
10
395
20
120
30
-450
11
320
21
120
31
-450
0
LINE
8
SUBESTACION
10
320
20
120
30
-450
11
320
21
80
31
-450
0
LINE
8
CHANCADO
10
610
20
75
30
-450
11
695
21
75
31
-450
0
LINE
8
CHANCADO
10
695
20
75
30
-450
11
695
21
120
31
-450
0
LINE
8
CHANCADO
10
695
20
120
30
-450
11
610
21
120
31
-450
0
LINE
8
CHANCADO
10
610
20
120
30
-450
11
610
21
75
31
-450
0
LINE
8
REFUGIO
10
540
20
80
30
-650
11
620
21
80
31
-650
0
LINE
8
REFUGIO
10
620
20
80
30
-650
11
620
21
120
31
-650
0
LINE
8
REFUGIO
10
620
20
120
30
-650
11
540
21
120
31
-650
0
LINE
8
REFUGIO
10
540
20
120
30
-650
11
540
21
80
31
-650
0
LINE
8
BOMBEO
10
840
20
75
30
-650
11
925
21
75
31
-650
0
LINE
8
BOMBEO
10
925
20
75
30
-650
11
925
21
120
31
-650
0
LINE
8
BOMBEO
10
925
20
120
30
-650
11
840
21
120
31
-650
0
LINE
8
BOMBEO
10
840
20
120
30
-650
11
840
21
75
31
-650
0
LINE
8
TRASPASO_MINERAL
10
180
20
0
30
-235
11
180
21
0
31
-285
0
LINE
8
TRASPASO_MINERAL
10
300
20
5
30
-235
11
300
21
5
31
-300
0
LINE
8
TRASPASO_MINERAL
10
405
20
0
30
-435
11
405
21
0
31
-500
0
LINE
8
TRASPASO_MINERAL
10
540
20
5
30
-435
11
540
21
5
31
-500
0
LINE
8
TRASPASO_MINERAL
10
625
20
0
30
-635
11
625
21
0
31
-705
0
LINE
8
TRASPASO_MINERAL
10
765
20
5
30
-635
11
765
21
5
31
-705
0
LINE
8
RAMPA_CARACOL
10
358.45687180653647
20
-111.1116407249435
30
-40.0
11
382.0700846802801
21
-138.63733298105473
31
-48.47222222222222
0
LINE
8
RAMPA_CARACOL
10
382.0700846802801
20
-138.63733298105473
30
-48.47222222222222
11
410.5995724558376
21
-161.02741747538383
31
-56.94444444444444
0
LINE
8
RAMPA_CARACOL
10
410.5995724558376
20
-161.02741747538383
30
-56.94444444444444
11
442.94896291751513
21
-177.4214558173177
31
-65.41666666666666
0
LINE
8
RAMPA_CARACOL
10
442.94896291751513
20
-177.4214558173177
30
-65.41666666666666
11
477.8750871316179
21
-187.1894343072585
31
-73.88888888888889
0
LINE
8
RAMPA_CARACOL
10
477.8750871316179
20
-187.1894343072585
30
-73.88888888888889
11
514.0357537313938
21
-189.9559750097832
31
-82.36111111111111
0
LINE
8
RAMPA_CARACOL
10
514.0357537313938
20
-189.9559750097832
30
-82.36111111111111
11
550.041328578549
21
-185.61476131718769
31
-90.83333333333333
0
LINE
8
RAMPA_CARACOL
10
550.041328578549
20
-185.61476131718769
30
-90.83333333333333
11
584.5081376238663
21
-174.33262363709773
31
-99.30555555555556
0
LINE
8
RAMPA_CARACOL
10
584.5081376238663
20
-174.33262363709773
30
-99.30555555555556
11
616.1116407249435
21
-156.5431281934635
31
-107.77777777777777
0
LINE
8
RAMPA_CARACOL
10
616.1116407249435
20
-156.5431281934635
30
-107.77777777777777
11
643.6373329810548
21
-132.92991531971984
31
-116.25
0
LINE
8
RAMPA_CARACOL
10
643.6373329810548
20
-132.92991531971984
30
-116.25
11
666.0274174753838
21
-104.40042754416244
31
-124.72222222222223
0
LINE
8
RAMPA_CARACOL
10
666.0274174753838
20
-104.40042754416244
30
-124.72222222222223
11
682.4214558173178
21
-72.0510370824848
31
-133.19444444444446
0
LINE
8
RAMPA_CARACOL
10
682.4214558173178
20
-72.0510370824848
30
-133.19444444444446
11
692.1894343072585
21
-37.12491286838216
31
-141.66666666666666
0
LINE
8
RAMPA_CARACOL
10
692.1894343072585
20
-37.12491286838216
30
-141.66666666666666
11
694.9559750097832
21
-0.9642462686062796
31
-150.13888888888889
0
LINE
8
RAMPA_CARACOL
10
694.9559750097832
20
-0.9642462686062796
30
-150.13888888888889
11
690.6147613171877
21
35.041328578548985
31
-158.61111111111111
0
LINE
8
RAMPA_CARACOL
10
690.6147613171877
20
35.041328578548985
30
-158.61111111111111
11
679.3326236370978
21
69.50813762386638
31
-167.08333333333334
0
LINE
8
RAMPA_CARACOL
10
679.3326236370978
20
69.50813762386638
30
-167.08333333333334
11
661.5431281934635
21
101.11164072494348
31
-175.55555555555554
0
LINE
8
RAMPA_CARACOL
10
661.5431281934635
20
101.11164072494348
30
-175.55555555555554
11
637.9299153197198
21
128.63733298105473
31
-184.02777777777777
0
LINE
8
RAMPA_CARACOL
10
637.9299153197198
20
128.63733298105473
30
-184.02777777777777
11
609.4004275441624
21
151.02741747538383
31
-192.5
0
LINE
8
RAMPA_CARACOL
10
609.4004275441624
20
151.02741747538383
30
-192.5
11
577.0510370824848
21
167.4214558173177
31
-200.97222222222223
0
LINE
8
RAMPA_CARACOL
10
577.0510370824848
20
167.4214558173177
30
-200.97222222222223
11
542.1249128683821
21
177.1894343072585
31
-209.44444444444446
0
LINE
8
RAMPA_CARACOL
10
542.1249128683821
20
177.1894343072585
30
-209.44444444444446
11
505.9642462686062
21
179.9559750097832
31
-217.91666666666669
0
LINE
8
RAMPA_CARACOL
10
505.9642462686062
20
179.9559750097832
30
-217.91666666666669
11
469.95867142145096
21
175.61476131718769
31
-226.3888888888889
0
LINE
8
RAMPA_CARACOL
10
469.95867142145096
20
175.61476131718769
30
-226.3888888888889
11
435.4918623761337
21
164.33262363709775
31
-234.8611111111111
0
LINE
8
RAMPA_CARACOL
10
435.4918623761337
20
164.33262363709775
30
-234.8611111111111
11
403.88835927505653
21
146.54312819346353
31
-243.33333333333331
0
LINE
8
RAMPA_CARACOL
10
403.88835927505653
20
146.54312819346353
30
-243.33333333333331
11
376.3626670189452
21
122.92991531971984
31
-251.80555555555554
0
LINE
8
RAMPA_CARACOL
10
376.3626670189452
20
122.92991531971984
30
-251.80555555555554
11
353.9725825246162
21
94.40042754416253
31
-260.27777777777777
0
LINE
8
RAMPA_CARACOL
10
353.9725825246162
20
94.40042754416253
30
-260.27777777777777
11
337.5785441826823
21
62.05103708248491
31
-268.75
0
LINE
8
RAMPA_CARACOL
10
337.5785441826823
20
62.05103708248491
30
-268.75
11
327.81056569274153
21
27.124912868382175
31
-277.22222222222223
0
LINE
8
RAMPA_CARACOL
10
327.81056569274153
20
27.124912868382175
30
-277.22222222222223
11
325.0440249902168
21
-9.035753731393779
31
-285.69444444444446
0
LINE
8
RAMPA_CARACOL
10
325.0440249902168
20
-9.035753731393779
30
-285.69444444444446
11
329.3852386828123
21
-45.04132857854904
31
-294.1666666666667
0
LINE
8
RAMPA_CARACOL
10
329.3852386828123
20
-45.04132857854904
30
-294.1666666666667
11
340.6673763629023
21
-79.50813762386645
31
-302.6388888888889
0
LINE
8
RAMPA_CARACOL
10
340.6673763629023
20
-79.50813762386645
30
-302.6388888888889
11
358.45687180653647
21
-111.11164072494348
31
-311.1111111111111
0
LINE
8
RAMPA_CARACOL
10
358.45687180653647
20
-111.11164072494348
30
-311.1111111111111
11
382.07008468028005
21
-138.63733298105464
31
-319.5833333333333
0
LINE
8
RAMPA_CARACOL
10
382.07008468028005
20
-138.63733298105464
30
-319.5833333333333
11
410.5995724558375
21
-161.02741747538383
31
-328.05555555555554
0
LINE
8
RAMPA_CARACOL
10
410.5995724558375
20
-161.02741747538383
30
-328.05555555555554
11
442.948962917515
21
-177.42145581731765
31
-336.52777777777777
0
LINE
8
RAMPA_CARACOL
10
442.948962917515
20
-177.42145581731765
30
-336.52777777777777
11
477.8750871316179
21
-187.1894343072585
31
-345.0
0
LINE
8
RAMPA_CARACOL
10
477.8750871316179
20
-187.1894343072585
30
-345.0
11
514.0357537313937
21
-189.9559750097832
31
-353.4722222222222
0
LINE
8
RAMPA_CARACOL
10
514.0357537313937
20
-189.9559750097832
30
-353.4722222222222
11
550.0413285785492
21
-185.61476131718766
31
-361.94444444444446
0
LINE
8
RAMPA_CARACOL
10
550.0413285785492
20
-185.61476131718766
30
-361.94444444444446
11
584.5081376238663
21
-174.33262363709773
31
-370.41666666666663
0
LINE
8
RAMPA_CARACOL
10
584.5081376238663
20
-174.33262363709773
30
-370.41666666666663
11
616.1116407249434
21
-156.5431281934636
31
-378.8888888888889
0
LINE
8
RAMPA_CARACOL
10
616.1116407249434
20
-156.5431281934636
30
-378.8888888888889
11
643.6373329810546
21
-132.92991531972004
31
-387.3611111111111
0
LINE
8
RAMPA_CARACOL
10
643.6373329810546
20
-132.92991531972004
30
-387.3611111111111
11
666.0274174753838
21
-104.40042754416248
31
-395.83333333333337
0
LINE
8
RAMPA_CARACOL
10
666.0274174753838
20
-104.40042754416248
30
-395.83333333333337
11
682.4214558173177
21
-72.051037082485
31
-404.30555555555554
0
LINE
8
RAMPA_CARACOL
10
682.4214558173177
20
-72.051037082485
30
-404.30555555555554
11
692.1894343072585
21
-37.12491286838212
31
-412.7777777777778
0
LINE
8
RAMPA_CARACOL
10
692.1894343072585
20
-37.12491286838212
30
-412.7777777777778
11
694.9559750097832
21
-0.9642462686063249
31
-421.25
0
LINE
8
RAMPA_CARACOL
10
694.9559750097832
20
-0.9642462686063249
30
-421.25
11
690.6147613171877
21
35.04132857854878
31
-429.7222222222222
0
LINE
8
RAMPA_CARACOL
10
690.6147613171877
20
35.04132857854878
30
-429.7222222222222
11
679.3326236370978
21
69.50813762386633
31
-438.19444444444446
0
LINE
8
RAMPA_CARACOL
10
679.3326236370978
20
69.50813762386633
30
-438.19444444444446
11
661.5431281934636
21
101.11164072494337
31
-446.66666666666663
0
LINE
8
RAMPA_CARACOL
10
661.5431281934636
20
101.11164072494337
30
-446.66666666666663
11
637.9299153197198
21
128.6373329810548
31
-455.1388888888889
0
LINE
8
RAMPA_CARACOL
10
637.9299153197198
20
128.6373329810548
30
-455.1388888888889
11
609.4004275441625
21
151.0274174753838
31
-463.6111111111111
0
LINE
8
RAMPA_CARACOL
10
609.4004275441625
20
151.0274174753838
30
-463.6111111111111
11
577.051037082485
21
167.42145581731765
31
-472.08333333333337
0
LINE
8
RAMPA_CARACOL
10
577.051037082485
20
167.42145581731765
30
-472.08333333333337
11
542.1249128683825
21
177.1894343072584
31
-480.55555555555554
0
LINE
8
RAMPA_CARACOL
10
542.1249128683825
20
177.1894343072584
30
-480.55555555555554
11
505.96424626860636
21
179.9559750097832
31
-489.0277777777778
0
LINE
8
RAMPA_CARACOL
10
505.96424626860636
20
179.9559750097832
30
-489.0277777777778
11
469.95867142145124
21
175.61476131718774
31
-497.5
0
LINE
8
RAMPA_CARACOL
10
469.95867142145124
20
175.61476131718774
30
-497.5
11
435.49186237613395
21
164.33262363709787
31
-505.9722222222222
0
LINE
8
RAMPA_CARACOL
10
435.49186237613395
20
164.33262363709787
30
-505.9722222222222
11
403.88835927505664
21
146.5431281934636
31
-514.4444444444445
0
LINE
8
RAMPA_CARACOL
10
403.88835927505664
20
146.5431281934636
30
-514.4444444444445
11
376.36266701894544
21
122.92991531972007
31
-522.9166666666666
0
LINE
8
RAMPA_CARACOL
10
376.36266701894544
20
122.92991531972007
30
-522.9166666666666
11
353.9725825246162
21
94.4004275441625
31
-531.3888888888889
0
LINE
8
RAMPA_CARACOL
10
353.9725825246162
20
94.4004275441625
30
-531.3888888888889
11
337.5785441826824
21
62.051037082485024
31
-539.8611111111111
0
LINE
8
RAMPA_CARACOL
10
337.5785441826824
20
62.051037082485024
30
-539.8611111111111
11
327.81056569274153
21
27.12491286838214
31
-548.3333333333334
0
LINE
8
RAMPA_CARACOL
10
327.81056569274153
20
27.12491286838214
30
-548.3333333333334
11
325.0440249902168
21
-9.035753731393653
31
-556.8055555555555
0
LINE
8
RAMPA_CARACOL
10
325.0440249902168
20
-9.035753731393653
30
-556.8055555555555
11
329.3852386828123
21
-45.04132857854908
31
-565.2777777777778
0
LINE
8
RAMPA_CARACOL
10
329.3852386828123
20
-45.04132857854908
30
-565.2777777777778
11
340.66737636290225
21
-79.50813762386632
31
-573.75
0
LINE
8
RAMPA_CARACOL
10
340.66737636290225
20
-79.50813762386632
30
-573.75
11
358.4568718065364
21
-111.11164072494336
31
-582.2222222222222
0
LINE
8
RAMPA_CARACOL
10
358.4568718065364
20
-111.11164072494336
30
-582.2222222222222
11
382.07008468027993
21
-138.63733298105456
31
-590.6944444444445
0
LINE
8
RAMPA_CARACOL
10
382.07008468027993
20
-138.63733298105456
30
-590.6944444444445
11
410.59957245583723
21
-161.0274174753836
31
-599.1666666666666
0
LINE
8
RAMPA_CARACOL
10
410.59957245583723
20
-161.0274174753836
30
-599.1666666666666
11
442.94896291751496
21
-177.42145581731762
31
-607.6388888888889
0
LINE
8
RAMPA_CARACOL
10
442.94896291751496
20
-177.42145581731762
30
-607.6388888888889
11
477.87508713161753
21
-187.1894343072584
31
-616.1111111111111
0
LINE
8
RAMPA_CARACOL
10
477.87508713161753
20
-187.1894343072584
30
-616.1111111111111
11
514.0357537313937
21
-189.9559750097832
31
-624.5833333333334
0
LINE
8
RAMPA_CARACOL
10
514.0357537313937
20
-189.9559750097832
30
-624.5833333333334
11
550.0413285785487
21
-185.61476131718774
31
-633.0555555555555
0
LINE
8
RAMPA_CARACOL
10
550.0413285785487
20
-185.61476131718774
30
-633.0555555555555
11
584.5081376238663
21
-174.33262363709775
31
-641.5277777777778
0
LINE
8
RAMPA_CARACOL
10
584.5081376238663
20
-174.33262363709775
30
-641.5277777777778
11
616.1116407249433
21
-156.54312819346362
31
-650.0
0
TEXT
8
TEXTOS_COTAS
10
180
20
-205
30
0
40
9
1
COTA 0  SUPERFICIE
0
TEXT
8
TEXTOS_COTAS
10
105
20
-115
30
-250
40
9
1
NIVEL 1  -250 m
0
TEXT
8
TEXTOS_COTAS
10
305
20
-115
30
-450
40
9
1
NIVEL 2  -450 m
0
TEXT
8
TEXTOS_COTAS
10
525
20
-115
30
-650
40
9
1
NIVEL 3  -650 m
0
TEXT
8
TEXTOS_COTAS
10
270
20
25
30
-250
40
9
1
GALERIA SERVICIO N1
0
TEXT
8
TEXTOS_COTAS
10
510
20
30
30
-450
40
9
1
GALERIA SERVICIO N2
0
TEXT
8
TEXTOS_COTAS
10
735
20
28
30
-650
40
9
1
GALERIA SERVICIO N3
0
TEXT
8
TEXTOS_COTAS
10
345
20
-85
30
-350
40
9
1
RAMPA ACCESO DIRECTA
0
TEXT
8
TEXTOS_COTAS
10
330
20
-145
30
-135
40
9
1
RAMPA CARACOL PRINCIPAL
0
TEXT
8
TEXTOS_COTAS
10
400
20
120
30
-250
40
9
1
ENLACE CARACOL N1
0
TEXT
8
TEXTOS_COTAS
10
670
20
120
30
-450
40
9
1
ENLACE CARACOL N2
0
TEXT
8
TEXTOS_COTAS
10
625
20
-145
30
-650
40
9
1
ENLACE CARACOL N3
0
TEXT
8
TEXTOS_COTAS
10
500
20
175
30
-120
40
9
1
PIQUE PRINCIPAL
0
TEXT
8
TEXTOS_COTAS
10
875
20
185
30
-170
40
9
1
INY. AIRE
0
TEXT
8
TEXTOS_COTAS
10
915
20
165
30
-250
40
9
1
EXT. AIRE
0
TEXT
8
TEXTOS_COTAS
10
150
20
115
30
-250
40
9
1
REFUGIO
0
TEXT
8
TEXTOS_COTAS
10
385
20
115
30
-250
40
9
1
TALLER LHD
0
TEXT
8
TEXTOS_COTAS
10
357
20
115
30
-450
40
9
1
SUBESTACION
0
TEXT
8
TEXTOS_COTAS
10
652
20
115
30
-450
40
9
1
CHANCADO
0
TEXT
8
TEXTOS_COTAS
10
580
20
115
30
-650
40
9
1
REFUGIO
0
TEXT
8
TEXTOS_COTAS
10
882
20
115
30
-650
40
9
1
BOMBEO
0
LINE
8
NODOS_RX
10
254.0
20
-70.0
30
-250.0
11
286.0
21
-70.0
31
-250.0
0
LINE
8
NODOS_RX
10
270.0
20
-86.0
30
-250.0
11
270.0
21
-54.0
31
-250.0
0
LINE
8
NODOS_RX
10
270.0
20
-70.0
30
-266.0
11
270.0
21
-70.0
31
-234.0
0
TEXT
8
NODOS_RX
10
290.0
20
-70.0
30
-242.0
40
11
1
RX-01 COTA -250 m
0
LINE
8
BEACONS_REF
10
220
20
-70
30
-250
11
230
21
-70
31
-250
0
LINE
8
BEACONS_REF
10
225
20
-75
30
-250
11
225
21
-65
31
-250
0
LINE
8
BEACONS_REF
10
225
20
-70
30
-255
11
225
21
-70
31
-245
0
TEXT
8
BEACONS_REF
10
232
20
-70
30
-247
40
6
1
TAG REF RX-01-01
0
LINE
8
BEACONS_REF
10
265
20
-70
30
-250
11
275
21
-70
31
-250
0
LINE
8
BEACONS_REF
10
270
20
-75
30
-250
11
270
21
-65
31
-250
0
LINE
8
BEACONS_REF
10
270
20
-70
30
-255
11
270
21
-70
31
-245
0
TEXT
8
BEACONS_REF
10
277
20
-70
30
-247
40
6
1
TAG REF RX-01-02
0
LINE
8
BEACONS_REF
10
310
20
-70
30
-250
11
320
21
-70
31
-250
0
LINE
8
BEACONS_REF
10
315
20
-75
30
-250
11
315
21
-65
31
-250
0
LINE
8
BEACONS_REF
10
315
20
-70
30
-255
11
315
21
-70
31
-245
0
TEXT
8
BEACONS_REF
10
322
20
-70
30
-247
40
6
1
TAG REF RX-01-03
0
LINE
8
NODOS_RX
10
504.0
20
40.0
30
-450.0
11
536.0
21
40.0
31
-450.0
0
LINE
8
NODOS_RX
10
520.0
20
24.0
30
-450.0
11
520.0
21
56.0
31
-450.0
0
LINE
8
NODOS_RX
10
520.0
20
40.0
30
-466.0
11
520.0
21
40.0
31
-434.0
0
TEXT
8
NODOS_RX
10
540.0
20
40.0
30
-442.0
40
11
1
RX-02 COTA -450 m
0
LINE
8
BEACONS_REF
10
470
20
40
30
-450
11
480
21
40
31
-450
0
LINE
8
BEACONS_REF
10
475
20
35
30
-450
11
475
21
45
31
-450
0
LINE
8
BEACONS_REF
10
475
20
40
30
-455
11
475
21
40
31
-445
0
TEXT
8
BEACONS_REF
10
482
20
40
30
-447
40
6
1
TAG REF RX-02-01
0
LINE
8
BEACONS_REF
10
515
20
40
30
-450
11
525
21
40
31
-450
0
LINE
8
BEACONS_REF
10
520
20
35
30
-450
11
520
21
45
31
-450
0
LINE
8
BEACONS_REF
10
520
20
40
30
-455
11
520
21
40
31
-445
0
TEXT
8
BEACONS_REF
10
527
20
40
30
-447
40
6
1
TAG REF RX-02-02
0
LINE
8
BEACONS_REF
10
560
20
40
30
-450
11
570
21
40
31
-450
0
LINE
8
BEACONS_REF
10
565
20
35
30
-450
11
565
21
45
31
-450
0
LINE
8
BEACONS_REF
10
565
20
40
30
-455
11
565
21
40
31
-445
0
TEXT
8
BEACONS_REF
10
572
20
40
30
-447
40
6
1
TAG REF RX-02-03
0
LINE
8
NODOS_RX
10
764.0
20
-50.0
30
-650.0
11
796.0
21
-50.0
31
-650.0
0
LINE
8
NODOS_RX
10
780.0
20
-66.0
30
-650.0
11
780.0
21
-34.0
31
-650.0
0
LINE
8
NODOS_RX
10
780.0
20
-50.0
30
-666.0
11
780.0
21
-50.0
31
-634.0
0
TEXT
8
NODOS_RX
10
800.0
20
-50.0
30
-642.0
40
11
1
RX-03 COTA -650 m
0
LINE
8
BEACONS_REF
10
730
20
-50
30
-650
11
740
21
-50
31
-650
0
LINE
8
BEACONS_REF
10
735
20
-55
30
-650
11
735
21
-45
31
-650
0
LINE
8
BEACONS_REF
10
735
20
-50
30
-655
11
735
21
-50
31
-645
0
TEXT
8
BEACONS_REF
10
742
20
-50
30
-647
40
6
1
TAG REF RX-03-01
0
LINE
8
BEACONS_REF
10
775
20
-50
30
-650
11
785
21
-50
31
-650
0
LINE
8
BEACONS_REF
10
780
20
-55
30
-650
11
780
21
-45
31
-650
0
LINE
8
BEACONS_REF
10
780
20
-50
30
-655
11
780
21
-50
31
-645
0
TEXT
8
BEACONS_REF
10
787
20
-50
30
-647
40
6
1
TAG REF RX-03-02
0
LINE
8
BEACONS_REF
10
820
20
-50
30
-650
11
830
21
-50
31
-650
0
LINE
8
BEACONS_REF
10
825
20
-55
30
-650
11
825
21
-45
31
-650
0
LINE
8
BEACONS_REF
10
825
20
-50
30
-655
11
825
21
-50
31
-645
0
TEXT
8
BEACONS_REF
10
832
20
-50
30
-647
40
6
1
TAG REF RX-03-03
0
TEXT
8
TEXTOS_COTAS
10
20
20
-260
30
25
40
11
1
MODELO 3D CONCEPTUAL DE MINA SUBTERRANEA - NO USAR PARA INGENIERIA
0
TEXT
8
TEXTOS_COTAS
10
20
20
-260
30
7
40
11
1
PROFUNDIDAD DEL BEACON INFERIDA POR COTA DEL READER BLE QUE CONFIRMA LA SENAL
0
TEXT
8
TEXTOS_COTAS
10
20
20
-260
30
-11
40
11
1
RX02 REPRESENTADO COMO NIVEL LOGICO; EL EQUIPO ACTUAL OPERA COMO GATEWAY MESHTASTIC
0
ENDSEC
0
EOF
